<?xml version="1.0" standalone="no"?>
<!DOCTYPE svg PUBLIC "-//W3C//DTD SVG 20010904//EN"
 "http://www.w3.org/TR/2001/REC-SVG-20010904/DTD/svg10.dtd">
<svg version="1.0" xmlns="http://www.w3.org/2000/svg"
 width="255.000000pt" height="255.000000pt" viewBox="0 0 255.000000 255.000000"
 preserveAspectRatio="xMidYMid meet">
<metadata>
Created by potrace 1.11, written by Peter Selinger 2001-2013
</metadata>
<g transform="translate(0.000000,255.000000) scale(0.100000,-0.100000)"
fill="#000000" stroke="none">
<path d="M1264 2037 c-3 -8 -24 -14 -50 -16 -35 -1 -44 1 -38 11 5 10 4 11 -7
1 -15 -15 -33 -17 -25 -4 3 4 -6 6 -19 3 -14 -2 -25 -8 -25 -13 0 -5 -7 -6
-15 -3 -8 4 -22 1 -30 -6 -12 -10 -16 -8 -24 11 -7 18 -10 20 -10 6 -1 -14 -5
-16 -19 -8 -13 7 -23 6 -32 -2 -10 -9 -11 -9 -6 1 4 6 2 12 -3 12 -6 0 -11 -8
-11 -17 0 -15 -2 -14 -15 3 -11 14 -15 16 -15 4 0 -12 -4 -10 -15 4 -13 17
-15 18 -15 3 0 -9 -5 -17 -11 -17 -5 0 -7 6 -3 13 5 8 2 8 -9 -2 -9 -7 -17
-10 -17 -5 0 5 -5 2 -10 -6 -8 -12 -10 -12 -10 -1 0 8 -13 0 -32 -18 -17 -17
-36 -31 -40 -31 -5 0 4 12 19 26 l28 26 -30 -22 c-16 -12 -31 -26 -31 -31 -1
-5 -2 -14 -3 -20 0 -5 -5 -7 -11 -4 -5 3 -10 -1 -10 -10 0 -9 -5 -13 -11 -10
-6 4 -13 -3 -16 -15 -3 -13 -11 -19 -20 -16 -8 3 -11 1 -8 -4 3 -6 0 -10 -7
-10 -9 0 -9 -3 2 -10 13 -8 12 -10 -3 -10 -10 0 -22 -10 -27 -22 -5 -13 -9
-19 -9 -13 -1 5 -8 -1 -17 -13 -8 -12 -20 -19 -26 -16 -7 5 -8 2 -3 -5 8 -14
-29 -54 -41 -43 -4 4 -4 2 -1 -4 4 -7 0 -17 -8 -24 -8 -7 -15 -19 -15 -26 0
-8 -4 -14 -9 -14 -5 0 -8 -8 -7 -17 2 -10 0 -30 -5 -45 -5 -18 -3 -29 4 -32 8
-3 8 -5 -1 -5 -7 -1 -10 -6 -7 -12 12 -18 13 -59 1 -59 -6 0 -4 -5 4 -10 13
-8 13 -10 -2 -10 -12 0 -15 -5 -11 -17 5 -12 3 -14 -8 -8 -8 5 -5 -1 5 -13 14
-16 15 -22 6 -22 -11 0 -11 -3 -2 -12 9 -9 9 -15 -1 -27 -9 -12 -9 -13 1 -7 6
4 12 3 12 -3 0 -5 -6 -12 -12 -14 -10 -4 -10 -6 0 -6 8 -1 10 -6 5 -13 -12
-20 -12 -37 -1 -45 7 -4 8 -1 3 7 -5 9 -4 11 4 6 7 -5 8 -13 2 -24 -7 -12 -5
-23 7 -36 11 -13 12 -16 3 -11 -11 6 -13 3 -9 -13 4 -15 2 -22 -9 -22 -8 0
-11 -5 -8 -10 4 -6 10 -8 15 -5 5 3 12 0 16 -6 4 -7 3 -9 -3 -6 -5 3 -9 -12
-9 -39 1 -24 5 -44 10 -44 5 0 4 -6 -2 -12 -15 -19 -15 -30 -2 -38 8 -5 9 -13
4 -21 -12 -20 -14 -39 -3 -39 5 0 9 -9 9 -20 0 -11 5 -20 10 -20 6 0 10 -9 10
-19 0 -11 9 -23 20 -26 18 -6 25 -17 21 -38 -1 -5 8 -6 19 -2 12 4 20 2 20 -5
0 -6 -4 -8 -10 -5 -5 3 -10 1 -10 -4 0 -6 5 -11 10 -11 6 0 10 -7 10 -16 0
-14 3 -14 15 -4 9 7 18 10 22 6 3 -3 2 -6 -4 -6 -5 0 -9 -10 -8 -22 1 -15 8
-22 19 -20 9 2 16 -2 16 -8 0 -5 6 -9 13 -7 6 1 11 -4 9 -12 -2 -8 1 -17 5
-20 4 -3 13 -15 19 -26 6 -11 21 -25 32 -31 16 -8 18 -14 10 -22 -8 -8 -5 -9
12 -5 18 5 21 3 15 -8 -7 -11 -5 -11 10 1 11 9 16 10 11 3 -5 -9 1 -13 18 -13
14 0 26 -4 26 -10 0 -5 22 -10 50 -10 42 0 49 2 44 18 -5 16 -5 16 6 0 11 -19
36 -26 25 -8 -3 6 -1 10 4 10 6 0 11 -5 11 -11 0 -8 6 -7 17 2 9 8 14 9 10 3
-3 -6 0 -11 8 -11 8 0 12 4 9 9 -3 4 -1 8 5 8 5 0 11 -6 14 -12 3 -10 8 -10
18 1 12 12 12 13 0 6 -10 -5 -12 -4 -7 4 10 15 26 5 27 -17 0 -14 2 -13 9 3 5
11 9 14 9 8 1 -7 6 -13 12 -13 5 0 8 4 4 9 -3 5 -1 13 5 16 6 4 9 1 8 -5 -2
-7 8 -16 22 -21 22 -8 23 -7 8 4 -16 12 -14 14 12 14 17 0 30 -4 30 -9 0 -4 5
-8 11 -8 5 0 8 4 5 8 -2 4 4 8 15 8 10 0 19 -3 19 -6 0 -3 9 -6 19 -6 11 0 17
4 15 8 -3 4 -1 8 5 8 5 0 12 -6 14 -12 4 -10 6 -10 6 -1 1 9 8 10 25 3 13 -5
27 -6 30 -2 10 9 106 9 100 0 -8 -13 11 -9 25 4 10 9 12 9 7 1 -4 -8 1 -11 14
-10 14 1 19 6 15 17 -3 8 3 4 13 -9 15 -18 21 -21 27 -11 6 9 4 11 -6 5 -8 -5
-10 -4 -6 0 10 12 38 15 31 4 -3 -5 0 -9 6 -9 6 0 8 -5 4 -12 -4 -7 -3 -8 5
-4 6 4 9 11 6 16 -3 5 -1 11 5 15 5 3 10 -1 10 -9 0 -10 6 -13 15 -10 8 4 12
10 9 15 -3 5 2 6 10 3 9 -3 14 -9 11 -13 -2 -4 2 -8 10 -8 11 0 12 5 3 20 -7
14 -7 17 1 13 6 -4 21 -2 33 4 22 11 22 10 4 -4 -11 -9 -15 -16 -10 -16 14 0
63 58 55 66 -3 4 2 4 11 1 11 -4 17 -2 15 6 -1 7 4 11 11 9 8 -1 11 2 8 7 -11
17 5 40 25 36 16 -3 17 -1 9 15 -9 16 -7 18 10 15 13 -3 18 0 14 7 -4 6 0 16
8 22 8 6 17 19 21 28 3 10 12 18 18 18 8 0 7 -6 -2 -17 -13 -16 -12 -17 4 -4
9 8 15 16 12 19 -3 3 1 12 8 20 10 13 9 14 -2 7 -10 -6 -12 -4 -7 4 5 7 15 10
23 7 8 -3 11 -1 8 4 -3 6 -1 10 6 10 8 0 7 5 -2 17 -8 9 -9 14 -4 11 6 -3 16
0 23 8 10 11 10 14 0 14 -8 0 -5 5 5 11 14 8 16 14 6 25 -9 11 -9 14 0 14 7 0
9 5 4 13 -11 18 -10 40 4 64 11 19 11 22 -2 17 -19 -8 -19 0 1 20 14 15 14 16
-2 16 -13 0 -14 3 -5 13 6 8 8 17 4 21 -11 10 -12 37 -2 30 5 -3 9 -1 9 5 0 5
-5 13 -12 17 -7 5 -5 11 7 21 18 13 18 13 -1 13 -16 0 -17 2 -4 10 10 6 11 10
3 10 -7 0 -13 5 -13 11 0 5 4 8 8 5 5 -3 9 1 9 9 0 8 -4 12 -7 10 -9 -6 -5 48
4 63 3 6 -2 16 -11 22 -13 8 -13 10 -2 7 10 -3 15 2 15 19 0 13 -2 21 -4 19
-8 -8 -32 24 -32 42 0 14 -2 15 -9 5 -6 -10 -10 -8 -15 10 -3 13 -9 19 -13 13
-10 -13 -45 -16 -37 -3 4 6 -4 8 -17 7 -13 -2 -30 0 -36 4 -7 5 -13 4 -13 -1
0 -6 -9 -8 -20 -5 -13 3 -20 0 -20 -8 -1 -10 -4 -9 -11 3 -5 10 -16 15 -25 11
-9 -3 -20 0 -25 8 -8 12 -12 11 -22 -3 -13 -16 -15 -16 -31 0 -15 15 -16 15
-11 1 5 -13 1 -16 -19 -14 -14 2 -30 6 -35 10 -6 3 -11 0 -12 -7 0 -7 -4 -4
-9 7 -6 14 -9 15 -9 5 -1 -20 -89 -19 -102 1 -7 12 -9 11 -9 -1 0 -20 -128
-19 -141 2 -6 10 -9 8 -9 -7 0 -17 -2 -17 -10 -5 -6 9 -10 11 -10 3 0 -7 -7
-10 -15 -7 -8 4 -22 1 -30 -6 -13 -11 -18 -10 -30 6 -13 18 -14 18 -20 2 -9
-23 -26 -13 -18 10 5 14 3 14 -9 -2 -9 -12 -22 -17 -31 -13 -9 3 -19 2 -23 -4
-3 -6 -13 -8 -21 -5 -8 3 -12 2 -9 -3 3 -5 -1 -12 -10 -15 -8 -3 -12 -10 -9
-16 3 -5 -1 -10 -9 -10 -9 0 -16 -5 -16 -11 0 -6 9 -8 23 -4 20 5 20 5 -3 -9
-18 -11 -20 -15 -9 -16 20 0 33 -27 16 -34 -7 -3 0 -3 15 -1 25 3 27 2 18 -16
-6 -11 -7 -19 -3 -18 16 4 43 -14 43 -27 0 -8 7 -17 15 -20 8 -3 17 -15 21
-26 5 -17 8 -18 16 -7 7 10 8 5 4 -16 -5 -22 -4 -26 4 -15 9 14 15 7 11 -14
-1 -5 5 -6 13 -3 9 4 15 3 14 -1 -1 -4 3 -17 10 -28 6 -12 9 -23 7 -26 -2 -2
6 -5 18 -5 12 -1 32 -15 45 -30 12 -15 20 -21 17 -12 -4 10 0 16 9 16 8 0 13
-4 11 -8 -3 -3 6 -9 20 -11 14 -3 25 -1 25 5 0 5 7 4 16 -4 13 -10 17 -10 24
0 5 9 9 10 14 2 4 -6 10 -9 14 -7 4 2 13 -2 19 -10 8 -7 9 -15 3 -19 -5 -3 -6
-13 -3 -23 3 -9 3 -14 -2 -10 -4 4 -13 3 -20 -2 -13 -11 -126 -20 -120 -9 3 4
-2 9 -10 12 -10 4 -12 1 -8 -10 5 -13 3 -14 -15 -4 -21 11 -26 8 -23 -12 1 -5
-4 -5 -11 -1 -7 5 -39 9 -70 10 -31 1 -62 5 -67 9 -6 3 -11 0 -11 -7 0 -8 -3
-9 -8 -3 -10 14 -42 15 -42 2 0 -6 -7 -2 -15 9 -11 13 -13 14 -9 3 4 -13 0
-15 -20 -12 -16 3 -23 10 -19 17 4 6 -1 5 -10 -3 -13 -10 -17 -10 -17 -1 0 7
-7 10 -16 6 -9 -3 -12 -2 -9 5 4 5 1 16 -5 24 -10 12 -10 15 0 15 9 0 9 4 -1
17 -10 11 -10 14 -1 9 15 -9 16 6 0 22 -8 8 -8 12 -1 12 14 0 7 51 -9 62 -10
7 -8 8 5 4 19 -6 24 10 5 17 -10 4 -10 6 0 6 9 1 10 6 3 20 -8 15 -7 20 6 25
14 6 13 10 -8 32 -21 22 -21 24 -4 18 18 -7 19 -6 5 11 -9 11 -10 16 -2 11 15
-9 15 -1 1 26 -8 15 -8 19 0 14 6 -4 11 -3 11 3 0 5 -6 12 -12 14 -10 4 -9 6
1 6 11 1 10 6 -4 21 -17 18 -17 20 -2 14 13 -5 16 -2 10 12 -5 12 -3 15 6 9 8
-4 6 4 -4 19 -12 18 -14 26 -5 26 9 0 9 4 -1 17 -10 11 -10 14 -1 9 11 -7 17
5 13 27 -1 4 9 2 21 -4 20 -11 21 -10 11 3 -10 12 -10 14 5 13 9 0 23 -4 30
-8 8 -6 10 -3 6 10 -5 17 -5 17 9 1 15 -19 32 -25 22 -8 -3 6 -1 10 4 10 6 0
11 -5 11 -11 0 -5 6 -7 12 -3 19 12 48 12 48 1 0 -5 7 -4 15 3 8 7 15 8 15 3
0 -5 7 -10 15 -10 8 0 12 4 9 9 -3 4 0 8 5 8 6 0 11 -6 11 -12 0 -9 4 -8 10 2
8 12 10 12 10 1 0 -11 3 -11 17 0 11 10 14 10 9 2 -9 -16 6 -17 22 -1 9 9 12
9 12 -1 0 -11 3 -11 17 0 13 11 17 11 20 1 3 -6 10 -9 16 -5 18 11 38 12 31 2
-8 -13 10 -11 24 3 7 7 12 8 12 2 0 -6 7 -11 15 -11 8 0 12 4 9 9 -3 4 0 8 5
8 6 0 11 -5 11 -11 0 -8 5 -7 16 2 13 10 17 10 24 -1 7 -11 11 -11 24 -1 13
11 16 11 16 0 0 -10 3 -10 12 -1 9 9 16 8 30 -5 18 -16 18 -16 12 3 -7 16 -5
17 7 7 12 -10 18 -10 29 0 10 10 11 9 5 -3 -8 -13 -7 -13 8 -1 14 11 17 11 17
0 0 -12 2 -12 9 0 7 11 9 11 14 0 4 -11 6 -11 6 0 1 11 5 10 16 -5 15 -18 15
-18 8 0 -4 13 -3 17 4 13 6 -4 19 0 27 9 9 8 16 13 16 9 0 -4 14 7 31 24 17
18 27 36 23 42 -4 8 -3 9 5 5 7 -5 16 4 24 23 7 17 16 29 19 26 3 -3 15 5 26
19 10 14 22 22 26 18 4 -3 4 1 0 11 -4 10 -1 17 6 17 7 0 10 7 7 14 -4 10 -1
13 9 9 9 -3 14 0 12 8 -2 8 3 13 10 11 11 -2 16 10 10 23 -2 2 7 12 20 20 12
9 22 23 22 31 0 10 5 12 13 8 9 -6 9 -5 -1 8 -10 12 -9 18 3 28 13 11 13 14
-1 27 -8 9 -12 24 -9 37 2 11 2 16 -1 10 -4 -9 -13 -8 -34 3 -17 8 -34 12 -40
8 -5 -3 -10 0 -10 7 0 9 -3 9 -10 -2 -9 -13 -11 -13 -20 0 -9 13 -10 13 -10 0
0 -13 -1 -13 -10 0 -9 13 -11 13 -20 0 -9 -13 -11 -13 -20 0 -9 13 -11 13 -20
0 -9 -13 -10 -13 -10 0 0 13 -1 13 -11 0 -8 -12 -12 -12 -16 -2 -4 10 -8 10
-21 0 -12 -10 -14 -10 -8 0 4 6 3 12 -3 12 -5 0 -13 -5 -16 -10 -5 -8 -12 -7
-23 2 -14 11 -15 10 -9 -7 7 -20 7 -20 -8 -1 -10 13 -15 15 -15 6 0 -9 -6 -8
-22 6 -19 15 -20 16 -9 2 15 -20 2 -25 -17 -6 -9 9 -12 9 -12 0 0 -6 -7 -9
-17 -5 -12 5 -14 3 -9 -8 4 -8 0 -5 -9 6 -9 12 -19 16 -23 10 -9 -13 -35 -18
-27 -5 9 14 -8 13 -23 -2 -9 -9 -12 -9 -12 0 0 7 -4 12 -10 12 -5 0 -7 -8 -4
-17 5 -16 4 -16 -6 0 -11 18 -12 18 -26 0 -8 -10 -14 -13 -13 -8 4 31 -2 38
-16 19 -11 -14 -14 -15 -15 -4 0 12 -2 13 -9 1 -7 -11 -11 -10 -21 5 -10 16
-11 16 -6 2 3 -10 1 -18 -4 -18 -6 0 -10 5 -10 11 0 8 -4 8 -12 2 -19 -14 -84
-10 -80 5 3 16 -7 15 -14 -1z m-520 -1353 c5 -14 4 -15 -9 -4 -17 14 -19 20
-6 20 5 0 12 -7 15 -16z"/>
<path d="M1040 2019 c0 -5 5 -7 10 -4 6 3 10 8 10 11 0 2 -4 4 -10 4 -5 0 -10
-5 -10 -11z"/>
<path d="M1300 1121 c0 -6 4 -13 10 -16 6 -3 7 1 4 9 -7 18 -14 21 -14 7z"/>
<path d="M1236 1032 c-3 -5 1 -9 9 -9 8 0 12 4 9 9 -3 4 -7 8 -9 8 -2 0 -6 -4
-9 -8z"/>
<path d="M675 739 c-4 -6 -5 -12 -2 -15 2 -3 7 2 10 11 7 17 1 20 -8 4z"/>
<path d="M1416 601 c8 -8 43 -8 38 0 -2 4 -13 7 -24 6 -10 -1 -17 -3 -14 -6z"/>
</g>
</svg>
